<svg width="21" height="20" viewBox="0 0 21 20" fill="none" xmlns="http://www.w3.org/2000/svg">
<g id="Atoms / Icons / Products 24x24">
<path id="Vector" d="M3 5.00002L5.5 1.66669H15.5L18 5.00002M3 5.00002V16.6667C3 17.1087 3.17559 17.5326 3.48816 17.8452C3.80072 18.1578 4.22464 18.3334 4.66667 18.3334H16.3333C16.7754 18.3334 17.1993 18.1578 17.5118 17.8452C17.8244 17.5326 18 17.1087 18 16.6667V5.00002M3 5.00002H18M13.8333 8.33335C13.8333 9.21741 13.4821 10.0653 12.857 10.6904C12.2319 11.3155 11.3841 11.6667 10.5 11.6667C9.61595 11.6667 8.7681 11.3155 8.14298 10.6904C7.51786 10.0653 7.16667 9.21741 7.16667 8.33335" stroke="#0075FF" stroke-width="1.41667" stroke-linecap="round" stroke-linejoin="round"/>
</g>
</svg>
