<svg width="20" height="20" viewBox="0 0 20 20" fill="none" xmlns="http://www.w3.org/2000/svg">
<g id="Watches / 24x24">
<path id="Icon" d="M5.83341 14.1665L6.23801 16.1895C6.39073 16.9531 6.46709 17.3349 6.66645 17.6205C6.84225 17.8723 7.08422 18.0707 7.36565 18.1937C7.6848 18.3332 8.07416 18.3332 8.85289 18.3332H11.1473C11.926 18.3332 12.3154 18.3332 12.6345 18.1937C12.9159 18.0707 13.1579 17.8723 13.3337 17.6205C13.5331 17.3349 13.6094 16.9531 13.7622 16.1895L14.1667 14.1665M5.83341 5.83317L6.23801 3.81019C6.39073 3.04659 6.46709 2.66478 6.66645 2.37919C6.84225 2.12735 7.08422 1.92898 7.36565 1.80598C7.6848 1.6665 8.07416 1.6665 8.85289 1.6665H11.1473C11.926 1.6665 12.3154 1.6665 12.6345 1.80598C12.9159 1.92898 13.1579 2.12735 13.3337 2.37919C13.5331 2.66478 13.6094 3.04659 13.7622 3.81019L14.1667 5.83317M10.0001 7.49984V9.99984L11.2501 11.2498M15.8334 9.99984C15.8334 13.2215 13.2217 15.8332 10.0001 15.8332C6.77842 15.8332 4.16675 13.2215 4.16675 9.99984C4.16675 6.77818 6.77842 4.1665 10.0001 4.1665C13.2217 4.1665 15.8334 6.77818 15.8334 9.99984Z" stroke="black" stroke-width="1.41667" stroke-linecap="round" stroke-linejoin="round"/>
</g>
</svg>
