<svg width="20" height="20" viewBox="0 0 20 20" fill="none" xmlns="http://www.w3.org/2000/svg">
<g id="Clothes / 24x24">
<path id="Vector" d="M16.9832 2.88317L13.3332 1.6665C13.3332 2.55056 12.9821 3.39841 12.3569 4.02353C11.7318 4.64865 10.884 4.99984 9.99991 4.99984C9.11586 4.99984 8.26801 4.64865 7.64289 4.02353C7.01777 3.39841 6.66658 2.55056 6.66658 1.6665L3.01658 2.88317C2.6394 3.00883 2.31956 3.26518 2.11479 3.60596C1.91002 3.94673 1.83381 4.34947 1.89991 4.7415L2.38324 7.63317C2.41497 7.82893 2.51548 8.00696 2.6667 8.13526C2.81791 8.26357 3.00993 8.33374 3.20824 8.33317H4.99991V16.6665C4.99991 17.5832 5.74991 18.3332 6.66658 18.3332H13.3332C13.7753 18.3332 14.1992 18.1576 14.5118 17.845C14.8243 17.5325 14.9999 17.1085 14.9999 16.6665V8.33317H16.7916C16.9899 8.33374 17.1819 8.26357 17.3331 8.13526C17.4843 8.00696 17.5848 7.82893 17.6166 7.63317L18.0999 4.7415C18.166 4.34947 18.0898 3.94673 17.885 3.60596C17.6803 3.26518 17.3604 3.00883 16.9832 2.88317Z" stroke="black" stroke-width="1.41667" stroke-linecap="round" stroke-linejoin="round"/>
</g>
</svg>
