<svg width="20" height="20" viewBox="0 0 20 20" fill="none" xmlns="http://www.w3.org/2000/svg">
<g id="Frame / 24x24">
<path id="Vector" d="M15.0001 6.66683V5.00016C15.0001 4.55814 14.8245 4.13421 14.5119 3.82165C14.1994 3.50909 13.7754 3.3335 13.3334 3.3335H3.33341C2.89139 3.3335 2.46746 3.50909 2.1549 3.82165C1.84234 4.13421 1.66675 4.55814 1.66675 5.00016V10.8335C1.66675 11.2755 1.84234 11.6994 2.1549 12.012C2.46746 12.3246 2.89139 12.5002 3.33341 12.5002H10.0001" stroke="black" stroke-width="1.41667" stroke-linecap="round" stroke-linejoin="round"/>
<path id="Vector_2" d="M8.33325 15.8332V12.5332V15.1582" stroke="black" stroke-width="1.41667" stroke-linecap="round" stroke-linejoin="round"/>
<path id="Vector_3" d="M5.83325 15.8335H9.99992" stroke="black" stroke-width="1.41667" stroke-linecap="round" stroke-linejoin="round"/>
<path id="Vector_4" d="M16.6666 10H14.9999C14.0794 10 13.3333 10.7462 13.3333 11.6667V16.6667C13.3333 17.5871 14.0794 18.3333 14.9999 18.3333H16.6666C17.5871 18.3333 18.3333 17.5871 18.3333 16.6667V11.6667C18.3333 10.7462 17.5871 10 16.6666 10Z" stroke="black" stroke-width="1.41667" stroke-linecap="round" stroke-linejoin="round"/>
</g>
</svg>
