<svg width="20" height="20" viewBox="0 0 20 20" fill="none" xmlns="http://www.w3.org/2000/svg">
<g id="Accesories / 24x24">
<g id="Icon">
<path d="M1.66675 6.98086C1.66675 6.68892 1.66675 6.54296 1.67893 6.42001C1.79642 5.23423 2.73447 4.29617 3.92026 4.17869C4.0432 4.1665 4.19705 4.1665 4.50473 4.1665C4.62329 4.1665 4.68257 4.1665 4.7329 4.16346C5.37559 4.12453 5.93837 3.7189 6.17854 3.1215C6.19734 3.07472 6.21492 3.02198 6.25008 2.9165C6.28524 2.81103 6.30282 2.75829 6.32163 2.71151C6.56179 2.11411 7.12457 1.70848 7.76726 1.66955C7.81759 1.6665 7.87318 1.6665 7.98436 1.6665H12.0158C12.127 1.6665 12.1826 1.6665 12.2329 1.66955C12.8756 1.70848 13.4384 2.11411 13.6785 2.71151C13.6973 2.75829 13.7149 2.81103 13.7501 2.9165C13.7852 3.02198 13.8028 3.07472 13.8216 3.1215C14.0618 3.7189 14.6246 4.12453 15.2673 4.16346C15.3176 4.1665 15.3769 4.1665 15.4954 4.1665C15.8031 4.1665 15.957 4.1665 16.0799 4.17869C17.2657 4.29617 18.2037 5.23423 18.3212 6.42001C18.3334 6.54296 18.3334 6.68892 18.3334 6.98086V13.4998C18.3334 14.9 18.3334 15.6 18.0609 16.1348C17.8212 16.6052 17.4388 16.9877 16.9684 17.2274C16.4336 17.4998 15.7335 17.4998 14.3334 17.4998H5.66675C4.26662 17.4998 3.56655 17.4998 3.03177 17.2274C2.56137 16.9877 2.17892 16.6052 1.93923 16.1348C1.66675 15.6 1.66675 14.9 1.66675 13.4998V6.98086Z" stroke="black" stroke-width="1.41667" stroke-linecap="round" stroke-linejoin="round"/>
<path d="M10.0001 13.7498C11.841 13.7498 13.3334 12.2575 13.3334 10.4165C13.3334 8.57555 11.841 7.08317 10.0001 7.08317C8.15913 7.08317 6.66675 8.57555 6.66675 10.4165C6.66675 12.2575 8.15913 13.7498 10.0001 13.7498Z" stroke="black" stroke-width="1.41667" stroke-linecap="round" stroke-linejoin="round"/>
</g>
</g>
</svg>
