<svg width="20" height="20" viewBox="0 0 20 20" fill="none" xmlns="http://www.w3.org/2000/svg">
<g id="Home-Improvment / 24x24" clip-path="url(#clip0_57_41239)">
<path id="Vector" d="M13.3334 1.6665H3.33341C2.41294 1.6665 1.66675 2.4127 1.66675 3.33317V4.99984C1.66675 5.92031 2.41294 6.6665 3.33341 6.6665H13.3334C14.2539 6.6665 15.0001 5.92031 15.0001 4.99984V3.33317C15.0001 2.4127 14.2539 1.6665 13.3334 1.6665Z" stroke="black" stroke-width="1.41667" stroke-linecap="round" stroke-linejoin="round"/>
<path id="Vector_2" d="M8.33325 13.3332V11.6665C8.33325 11.2245 8.50885 10.8006 8.82141 10.488C9.13397 10.1754 9.55789 9.99984 9.99992 9.99984H16.6666C17.1086 9.99984 17.5325 9.82424 17.8451 9.51168C18.1577 9.19912 18.3333 8.7752 18.3333 8.33317V5.83317C18.3333 5.39114 18.1577 4.96722 17.8451 4.65466C17.5325 4.3421 17.1086 4.1665 16.6666 4.1665H14.9999" stroke="black" stroke-width="1.41667" stroke-linecap="round" stroke-linejoin="round"/>
<path id="Vector_3" d="M9.16675 13.3335H7.50008C7.03984 13.3335 6.66675 13.7066 6.66675 14.1668V17.5002C6.66675 17.9604 7.03984 18.3335 7.50008 18.3335H9.16675C9.62699 18.3335 10.0001 17.9604 10.0001 17.5002V14.1668C10.0001 13.7066 9.62699 13.3335 9.16675 13.3335Z" stroke="black" stroke-width="1.41667" stroke-linecap="round" stroke-linejoin="round"/>
</g>
<defs>
<clipPath id="clip0_57_41239">
<rect width="20" height="20" fill="white"/>
</clipPath>
</defs>
</svg>
