<svg width="20" height="20" viewBox="0 0 20 20" fill="none" xmlns="http://www.w3.org/2000/svg">
<g id="Luggage / 24x24">
<path id="Vector" d="M4.99992 16.6667C4.55789 16.6667 4.13397 16.4911 3.82141 16.1785C3.50885 15.866 3.33325 15.442 3.33325 15V6.66667C3.33325 6.22464 3.50885 5.80072 3.82141 5.48816C4.13397 5.17559 4.55789 5 4.99992 5H14.9999C15.4419 5 15.8659 5.17559 16.1784 5.48816C16.491 5.80072 16.6666 6.22464 16.6666 6.66667V15C16.6666 15.442 16.491 15.866 16.1784 16.1785C15.8659 16.4911 15.4419 16.6667 14.9999 16.6667" stroke="black" stroke-width="1.41667" stroke-linecap="round" stroke-linejoin="round"/>
<path id="Vector_2" d="M6.66675 14.9998V3.33317C6.66675 2.89114 6.84234 2.46722 7.1549 2.15466C7.46746 1.8421 7.89139 1.6665 8.33341 1.6665H11.6667C12.1088 1.6665 12.5327 1.8421 12.8453 2.15466C13.1578 2.46722 13.3334 2.89114 13.3334 3.33317V14.9998" stroke="black" stroke-width="1.41667" stroke-linecap="round" stroke-linejoin="round"/>
<path id="Vector_3" d="M8.33325 16.6665H11.6666" stroke="black" stroke-width="1.41667" stroke-linecap="round" stroke-linejoin="round"/>
<path id="Vector_4" d="M13.3334 18.3333C14.2539 18.3333 15.0001 17.5871 15.0001 16.6667C15.0001 15.7462 14.2539 15 13.3334 15C12.4129 15 11.6667 15.7462 11.6667 16.6667C11.6667 17.5871 12.4129 18.3333 13.3334 18.3333Z" stroke="black" stroke-width="1.41667" stroke-linecap="round" stroke-linejoin="round"/>
<path id="Vector_5" d="M6.66667 18.3333C7.58714 18.3333 8.33333 17.5871 8.33333 16.6667C8.33333 15.7462 7.58714 15 6.66667 15C5.74619 15 5 15.7462 5 16.6667C5 17.5871 5.74619 18.3333 6.66667 18.3333Z" stroke="black" stroke-width="1.41667" stroke-linecap="round" stroke-linejoin="round"/>
</g>
</svg>
