<svg width="20" height="20" viewBox="0 0 20 20" fill="none" xmlns="http://www.w3.org/2000/svg">
<g id="Games / 24x24">
<path id="Vector" d="M5 9.1665H8.33333" stroke="black" stroke-width="1.41667" stroke-linecap="round" stroke-linejoin="round"/>
<path id="Vector_2" d="M6.66675 7.5V10.8333" stroke="black" stroke-width="1.41667" stroke-linecap="round" stroke-linejoin="round"/>
<path id="Vector_3" d="M12.5 10H12.5083" stroke="black" stroke-width="1.41667" stroke-linecap="round" stroke-linejoin="round"/>
<path id="Vector_4" d="M15 8.3335H15.0083" stroke="black" stroke-width="1.41667" stroke-linecap="round" stroke-linejoin="round"/>
<path id="Vector_5" d="M14.4334 4.1665H5.56675C4.74198 4.1667 3.94657 4.47265 3.33428 5.02522C2.72198 5.5778 2.33629 6.33775 2.25175 7.15817C2.24675 7.2015 2.24341 7.24234 2.23758 7.28484C2.17008 7.8465 1.66675 12.0465 1.66675 13.3332C1.66675 13.9962 1.93014 14.6321 2.39898 15.1009C2.86782 15.5698 3.50371 15.8332 4.16675 15.8332C5.00008 15.8332 5.41675 15.4165 5.83341 14.9998L7.01175 13.8215C7.32424 13.5089 7.74809 13.3333 8.19008 13.3332H11.8101C12.2521 13.3333 12.6759 13.5089 12.9884 13.8215L14.1667 14.9998C14.5834 15.4165 15.0001 15.8332 15.8334 15.8332C16.4965 15.8332 17.1323 15.5698 17.6012 15.1009C18.07 14.6321 18.3334 13.9962 18.3334 13.3332C18.3334 12.0457 17.8301 7.8465 17.7626 7.28484C17.7567 7.24317 17.7534 7.2015 17.7484 7.159C17.6641 6.33843 17.2785 5.57828 16.6661 5.02553C16.0538 4.47279 15.2583 4.16672 14.4334 4.1665Z" stroke="black" stroke-width="1.41667" stroke-linecap="round" stroke-linejoin="round"/>
</g>
</svg>
