<svg width="29" height="28" viewBox="0 0 29 28" fill="none" xmlns="http://www.w3.org/2000/svg">
<g id="Aliexpress 1">
<path id="Vector" d="M23.5792 23.1281H5.4166C4.9349 23.1281 4.47293 22.9368 4.13231 22.5962C3.7917 22.2555 3.60034 21.7936 3.60034 21.3119V4.91767C3.60034 4.43597 3.7917 3.974 4.13231 3.63338C4.47293 3.29277 4.9349 3.10141 5.4166 3.10141H23.5792C24.0609 3.10141 24.5229 3.29277 24.8635 3.63338C25.2041 3.974 25.3955 4.43597 25.3955 4.91767V21.3119C25.3955 21.7936 25.2041 22.2555 24.8635 22.5962C24.5229 22.9368 24.0609 23.1281 23.5792 23.1281Z" fill="#FF8F00"/>
<path id="Vector_2" d="M23.5792 24.8962H5.4166C4.9349 24.8962 4.47293 24.7048 4.13231 24.3642C3.7917 24.0236 3.60034 23.5616 3.60034 23.0799V7.94441C3.60034 7.4627 3.7917 7.00073 4.13231 6.66011C4.47293 6.3195 4.9349 6.12814 5.4166 6.12814H23.5792C24.0609 6.12814 24.5229 6.3195 24.8635 6.66011C25.2041 7.00073 25.3955 7.4627 25.3955 7.94441V23.0799C25.3955 23.5616 25.2041 24.0236 24.8635 24.3642C24.5229 24.7048 24.0609 24.8962 23.5792 24.8962Z" fill="#DD2C00"/>
<path id="Vector_3" d="M9.05166 10.9729C9.72039 10.9729 10.2625 10.4308 10.2625 9.76208C10.2625 9.09335 9.72039 8.55124 9.05166 8.55124C8.38293 8.55124 7.84082 9.09335 7.84082 9.76208C7.84082 10.4308 8.38293 10.9729 9.05166 10.9729Z" fill="#B71C1C"/>
<path id="Vector_4" d="M19.9513 10.9729C20.62 10.9729 21.1622 10.4308 21.1622 9.76208C21.1622 9.09335 20.62 8.55124 19.9513 8.55124C19.2826 8.55124 18.7405 9.09335 18.7405 9.76208C18.7405 10.4308 19.2826 10.9729 19.9513 10.9729Z" fill="#B71C1C"/>
<path id="Vector_5" d="M19.9498 9.76276C19.9498 12.7723 17.5106 15.2115 14.501 15.2115C11.4915 15.2115 9.05225 12.7723 9.05225 9.76276" stroke="white" stroke-width="1.21084" stroke-miterlimit="10" stroke-linecap="round"/>
</g>
</svg>
