<svg width="29" height="28" viewBox="0 0 29 28" fill="none" xmlns="http://www.w3.org/2000/svg">
<path d="M6.84576 15.9034C5.79455 14.8522 5.79455 13.1478 6.84576 12.0966L16.8218 2.1206C17.8059 1.13648 19.4015 1.13649 20.3856 2.12061C21.3697 3.10473 21.3697 4.7003 20.3856 5.68442L8.69654 17.3735C8.59142 17.4786 8.42098 17.4786 8.31586 17.3735L6.84576 15.9034Z" fill="#2A8CFF"/>
<path d="M12.8846 15.1955C12.9897 15.0904 13.1602 15.0904 13.2653 15.1955L20.4006 22.3308C21.3847 23.3149 21.3847 24.9105 20.4006 25.8946C19.4165 26.8788 17.8209 26.8788 16.8368 25.8946L9.70147 18.7593C9.59635 18.6542 9.59635 18.4838 9.70147 18.3787L12.8846 15.1955Z" fill="#FB005E"/>
<path d="M14.2707 14.1903C14.1655 14.0852 14.1655 13.9148 14.2707 13.8097L16.9667 11.1136C17.9256 10.1547 19.4803 10.1547 20.4392 11.1136C21.4485 12.1229 21.4485 13.7594 20.4392 14.7688L17.8345 17.3735C17.7294 17.4786 17.5589 17.4786 17.4538 17.3735L14.2707 14.1903Z" fill="#FFC108"/>
</svg>
